<?xml version="1.0" encoding="UTF-8"?>
<svg id="Layer_1" data-name="Layer 1" xmlns="http://www.w3.org/2000/svg" viewBox="0 0 1323.13 1280.68">
  <defs>
    <style>
      .cls-1 {
        fill: #fcfcfc;
      }

      .cls-1, .cls-2, .cls-3, .cls-4, .cls-5, .cls-6, .cls-7 {
        stroke-width: 0px;
      }

      .cls-2 {
        fill: #0c0c0c;
      }

      .cls-3 {
        fill: #f7f7f7;
      }

      .cls-4 {
        fill: #fff;
      }

      .cls-5 {
        fill: #050809;
      }

      .cls-6 {
        fill: #fefefe;
      }

      .cls-7 {
        fill: #06070c;
      }
    </style>
  </defs>
  <path class="cls-2" d="M317.83,737.51s-32.32-71.1-9.7-153.29c0,0-92.8-86.34-89.57-227.63,3.23-141.28,51.25-187.92,51.25-187.92,0,0,82.65-180.53,396.61-168.06,313.97,12.47,376.3,149.13,376.3,149.13,0,0,60.02,74.34,60.02,210.54s-88.65,221.62-88.65,221.62c0,0,24.93,83.11-6,150.06l98.81-47.09s29.55-107.58,100.65-96.5c71.1,11.08,53.56,106.19,53.56,106.19l47.56,41.55s49.87,80.34-35.55,91.42c0,0-44.79,8.31-110.81,0-66.03-8.31,3.74-1.59,3.74-1.59l-247.52,113.79-1.85,21.7,177.76,79.88h31.4s104.35-32.78,117.28,56.33c0,0,2.31,31.4-60.95,76.64,0,0,16.62,105.27-51.25,106.19-67.87.92-85.88-71.1-85.88-71.1l-22.62-29.55-156.52-81.26-55.41,51.71s-176.84,83.11-327.36-17.55l-33.24-35.09-152.83,84.03s-25.86,93.73-96.04,98.81c-70.18,5.08-57.25-92.34-57.25-92.34l-57.25-68.8s-30.01-86.8,68.8-86.34l83.57,5.54,156.98-77.11s18.01-17.55-15.24-30.93c-33.24-13.39-223.47-103.89-223.47-103.89,0,0-151.44,31.86-156.52-41.09,0,0-10.16-48.48,51.25-87.26,0,0,4.62-117.28,62.79-109.43,58.18,7.85,78.03,48.48,78.03,48.48,0,0-4.16,61.41,125.12,100.19Z"/>
  <path class="cls-6" d="M317.36,521.89s-66.49-111.73-48.48-211.47c18.01-99.73,55.41-134.36,55.41-134.36,0,0,71.1-90.03,199-112.2,127.89-22.16,175.45-13.39,175.45-13.39,0,0,169.45,3.23,263.64,88.65,94.19,85.42,90.96,192.53,90.96,192.53,0,0,10.16,119.58-47.56,183.3l-1.85-62.33s38.78-70.64,24.93-135.28c0,0-6.46-47.09-41.55-49.87-35.09-2.77-17.55,41.09-17.55,41.09l9.23,8.31-.92,63.25-23.09,59.56-3.23,59.1,4.62,44.79,4.62,30.47,13.39,55.87s5.08,91.42-42.02,108.04c-47.09,16.62-75.26,24.93-75.26,24.93,0,0-73.41,34.63-71.1,114.04,0,0-178.68,30.47-249.79-1.39,0,0,7.39-44.32-25.39-75.26-32.78-30.93-64.18-40.63-64.18-40.63l-45.25-13.39s-58.18-10.62-53.56-105.27l20.32-96.5,3.69-63.25-5.08-43.4-21.24-55.41-1.39-60.48,15.24-18.47s10.16-17.08-6.93-29.09c-17.08-12-40.63,5.08-40.63,5.08,0,0-23.09,15.7-17.55,74.8,5.54,59.1,13.39,72.03,13.39,72.03,0,0,18.93,36.01,9.7,95.57Z"/>
  <path class="cls-5" d="M457.72,469.49s-43.17,2.77-52.87,72.72c0,0-32.09,119.35,54.25,126.05,0,0,78.26-1.62,134.59-46.17,0,0,61.41-49.87,4.85-90.96,0,0-108.96-69.49-140.82-61.64Z"/>
  <path class="cls-5" d="M653.49,637.32v149.83l-32.09,32.78s-27.93,15.93-33.47-19.62c-5.54-35.55,4.39-87.96,4.39-87.96,0,0,35.32-69.26,61.18-75.03Z"/>
  <path class="cls-5" d="M669.65,639.86v146.36l35.32,35.55s24.93,6.23,28.4-27.7c3.46-33.94,0-71.1,0-71.1,0,0-33.71-77.34-63.72-83.11Z"/>
  <path class="cls-3" d="M435.1,805.85s42.94,72.03,41.09,161.14c0,0,31.86,71.57,149.6,73.87,117.74,2.31,132.51-9.23,132.51-9.23,0,0,79.88-21.24,90.5-60.48,0,0,2.31-131.13,35.55-162.06l3.23,6.93-18.93,60.48-3.23,33.24,4.62,39.25s8.31,94.65-71.1,150.52c0,0-38.32,30.93-128.36,30.93,0,0-179.61,14.31-215.62-126.05,0,0-10.16-51.71-.92-107.12,0,0-15.7-81.26-18.93-91.42Z"/>
  <path class="cls-3" d="M538.52,899.11s-14.77-14.77-16.62,9.7l.46,18.47,16.16,12v-40.17Z"/>
  <polygon class="cls-3" points="556.99 901.42 556.07 945.75 578.23 949.9 578.69 904.19 556.99 901.42"/>
  <polygon class="cls-3" points="612.4 907.42 596.7 906.96 595.78 957.75 613.32 956.83 612.4 907.42"/>
  <polygon class="cls-3" points="653.95 909.73 630.41 909.27 629.02 961.44 654.42 960.98 653.95 909.73"/>
  <polygon class="cls-3" points="690.43 907.89 671.04 907.89 671.5 960.98 690.89 959.6 690.43 907.89"/>
  <polygon class="cls-3" points="722.75 906.96 706.59 906.5 707.05 959.14 725.52 958.21 722.75 906.96"/>
  <polygon class="cls-3" points="764.3 901.42 739.83 904.19 741.22 957.29 766.61 945.28 764.3 901.42"/>
  <polygon class="cls-3" points="799.86 892.65 781.39 894.03 782.77 940.67 799.86 928.66 799.86 892.65"/>
  <polygon class="cls-3" points="798.93 948.05 781.39 957.75 782.31 1002.54 801.24 987.76 798.93 948.05"/>
  <path class="cls-3" d="M764.76,960.98c-1.39,0-24.01,8.31-24.01,8.31l1.85,48.02,24.93-9.7-2.77-46.63Z"/>
  <polygon class="cls-3" points="723.67 972.53 709.36 973.45 708.44 1023.31 725.52 1018.24 723.67 972.53"/>
  <polygon class="cls-3" points="691.35 973.91 668.27 974.83 670.11 1027.01 694.12 1024.7 691.35 973.91"/>
  <polygon class="cls-3" points="652.11 977.6 629.48 978.53 629.94 1024.24 654.42 1021.93 652.11 977.6"/>
  <polygon class="cls-3" points="612.86 973.45 595.78 972.06 594.39 1020.08 614.71 1020.54 612.86 973.45"/>
  <polygon class="cls-3" points="576.39 969.76 555.61 963.75 555.15 1005.77 576.85 1016.85 576.39 969.76"/>
  <polygon class="cls-3" points="539.45 955.44 522.83 945.75 522.36 991.92 536.22 998.84 539.45 955.44"/>
  <path class="cls-7" d="M665.5,203.31s-114.04,77.11-143.59,212.39c0,0-85.88-83.11-24.93-213.77,0,0,58.64-86.8,124.2-89.57,0,0,84.03,77.57,44.32,90.96Z"/>
  <path class="cls-7" d="M652.57,108.2l35.09,43.86,13.85,33.24,9.7,7.85s51.71,13.85,87.26,48.48c35.55,34.63,45.25,62.79,45.25,62.79l-1.85-48.02s-17.55-70.18-54.48-97.42c-36.94-27.24-40.63-45.25-134.82-50.79Z"/>
  <path class="cls-7" d="M701.51,213.93s-86.8,47.09-124.66,128.36c-37.86,81.26-36.01,92.34-36.01,92.34,0,0,42.02,57.71,137.59,47.09,95.57-10.62,145.44-92.34,145.44-92.34,0,0,35.55-43.4-12.47-97.42-48.02-54.02-109.89-78.03-109.89-78.03Z"/>
  <path class="cls-4" d="M102.67,715.35c-1.39.46-54.48,48.02-54.48,48.02,0,0-17.55,25.39,29.55,22.62s71.57-9.23,71.57-9.23l39.71,10.62,216.08,105.73-16.16-70.18s-185.61-85.42-209.62-112.66c-24.01-27.24-40.63-65.56-40.63-65.56,0,0-27.7-29.55-31.86,10.62l-4.16,60.02Z"/>
  <path class="cls-4" d="M408.32,1006.69l17.55,51.25-152.83,81.72-60.02,88.65s-24.01,23.55-24.01-25.39l-2.31-52.64-52.64-49.4s-22.62-18.01,12.93-21.7l46.17,5.54s34.63,8.31,77.11-8.31l138.05-69.72Z"/>
  <path class="cls-1" d="M894.51,1059.33l135.74,70.64s38.78,4.62,60.95,78.03c0,0,37.86,43.4,42.48,13.85l3.69-77.11,47.09-38.32s32.32-21.7-6.93-25.39c0,0-19.39-7.39-53.56,6.93,0,0-43.4,2.31-73.87-17.55l-135.74-65.1s-8.77,42.94-19.85,54.02Z"/>
  <path class="cls-4" d="M933.75,819.24l-18.47,75.72,199.46-97.42s37.86-31.86,98.35-14.31l42.94.92s32.78-.46,7.39-25.86l-46.63-46.63-1.39-53.1s-.46-39.25-24.93-21.24c-24.47,18.01-31.86,44.79-31.86,44.79,0,0-16.62,41.55-44.32,52.64l-180.53,84.49Z"/>
  <path class="cls-2" d="M823.17,477.34l-79.65,42.94-31.17,14.54s-34.63,45.02,8.31,78.95c42.94,33.94,105.27,47.79,105.27,47.79,0,0,59.56,24.93,84.49-24.24,24.93-49.17,10.39-83.11,10.39-83.11,0,0-7.62-105.96-97.65-76.88Z"/>
</svg>